<?xml version="1.0" standalone="no"?>
<!DOCTYPE svg PUBLIC "-//W3C//DTD SVG 20010904//EN"
 "http://www.w3.org/TR/2001/REC-SVG-20010904/DTD/svg10.dtd">
<svg version="1.0" xmlns="http://www.w3.org/2000/svg"
 width="1024.000000pt" height="1024.000000pt" viewBox="0 0 1024.000000 1024.000000"
 preserveAspectRatio="xMidYMid meet">
<metadata>
Created by potrace 1.11, written by Peter Selinger 2001-2013
</metadata>
<g transform="translate(0.000000,1024.000000) scale(0.100000,-0.100000)"
fill="#000000" stroke="none">
<path d="M7243 8420 c-62 -25 -123 -84 -155 -148 -17 -36 -22 -64 -22 -122 0
-111 22 -144 216 -337 l163 -162 201 203 202 203 -162 161 c-88 88 -181 172
-205 187 -61 38 -164 44 -238 15z"/>
<path d="M2893 8241 c-26 -9 -59 -24 -73 -34 -13 -9 -310 -302 -660 -649 -678
-675 -703 -703 -770 -865 -48 -116 -70 -239 -66 -368 2 -60 7 -121 10 -135 3
-14 8 -38 12 -55 20 -98 83 -232 154 -326 43 -58 107 -121 334 -329 180 -166
192 -176 297 -246 166 -111 365 -192 569 -230 101 -19 366 -26 469 -11 263 36
539 154 744 318 34 28 445 433 914 901 637 636 858 862 875 897 32 66 32 178
0 243 -78 158 -276 214 -417 117 -22 -15 -186 -174 -365 -354 -179 -179 -342
-335 -362 -346 -47 -24 -89 -24 -137 1 -50 25 -78 71 -85 140 -9 77 -23 118
-60 166 -53 71 -131 113 -213 114 -135 1 -243 94 -258 221 -11 89 -17 114 -40
158 -48 95 -129 145 -250 156 -85 7 -144 34 -189 86 -36 43 -52 89 -61 183
-19 182 -203 304 -372 247z"/>
<path d="M2065 8026 c-52 -13 -141 -53 -170 -77 -88 -72 -119 -119 -203 -304
-33 -72 -69 -152 -82 -180 -12 -27 -51 -113 -86 -190 -36 -76 -63 -143 -62
-147 2 -4 198 187 436 424 251 251 430 438 427 445 -13 34 -168 51 -260 29z"/>
<path d="M8065 7972 c-27 -10 -61 -25 -74 -34 -46 -33 -423 -412 -439 -442
-20 -40 -42 -132 -36 -159 12 -68 18 -86 40 -124 53 -91 166 -151 269 -140 74
8 132 36 198 96 31 28 68 53 82 57 41 10 80 -13 120 -72 49 -71 102 -112 172
-134 235 -72 444 167 341 390 -27 60 -331 457 -386 505 -74 64 -195 88 -287
57z"/>
<path d="M6722 7895 c-44 -13 -103 -54 -134 -90 -62 -72 -80 -191 -45 -285 18
-49 50 -84 287 -322 298 -299 315 -312 430 -311 77 0 139 24 197 77 l40 36
-37 40 c-88 95 -126 211 -117 356 l6 93 -191 191 c-164 163 -199 193 -245 210
-61 23 -129 25 -191 5z"/>
<path d="M4817 7699 c-82 -19 -154 -75 -195 -153 -36 -70 -37 -179 -3 -246 22
-43 88 -120 102 -120 4 0 97 90 207 200 l200 200 -46 41 c-79 71 -174 98 -265
78z"/>
<path d="M6183 7366 c-163 -53 -246 -248 -168 -397 16 -32 113 -135 291 -313
239 -238 272 -268 323 -287 99 -37 216 -14 294 59 90 84 115 228 60 337 -29
55 -539 561 -593 587 -55 27 -148 33 -207 14z"/>
<path d="M8799 6961 c-88 -89 -191 -131 -318 -131 -133 0 -254 52 -346 148
l-21 23 -52 -34 c-100 -68 -259 -96 -364 -64 -27 8 -48 12 -48 8 0 -12 -82
-97 -121 -125 -66 -48 -157 -78 -244 -82 -44 -2 -82 -3 -85 -4 -3 0 -6 -35 -7
-78 -5 -222 -166 -405 -390 -444 -92 -15 -189 -1 -281 42 -60 28 -100 64 -402
364 l-335 332 -201 -202 -201 -202 491 -489 c270 -268 504 -499 520 -512 185
-151 470 -282 689 -316 17 -3 48 -8 67 -11 56 -10 333 -13 381 -4 24 4 63 11
87 14 57 7 107 21 220 58 202 66 389 179 568 343 6 5 60 55 120 110 272 249
337 327 398 473 57 134 71 210 70 367 -1 110 -6 157 -23 220 -21 78 -99 257
-110 253 -3 -1 -31 -27 -62 -57z"/>
<path d="M7020 4961 c-55 -23 -116 -80 -137 -129 -19 -45 -18 -126 1 -172 20
-49 70 -98 125 -123 65 -31 188 -30 249 2 87 45 135 119 135 212 0 91 -40 154
-127 200 -56 30 -184 35 -246 10z"/>
<path d="M3787 4454 c-1 -1 -27 -4 -57 -7 -321 -30 -558 -256 -610 -582 -9
-54 -16 -687 -11 -967 l1 -38 210 0 210 0 1 23 c0 12 0 91 0 175 l0 152 318 0
317 0 0 -175 -1 -175 213 0 213 0 -4 508 c-4 568 -3 563 -78 718 -68 141 -186
249 -334 309 -70 28 -73 29 -165 46 -47 10 -215 19 -223 13z m150 -359 c64 -9
146 -69 179 -129 40 -73 51 -134 50 -286 l-1 -135 -312 0 c-273 -1 -312 1
-316 15 -2 8 -2 78 -1 155 1 103 6 153 19 190 30 85 70 132 143 166 72 34 129
40 239 24z"/>
<path d="M8297 4455 c-1 -2 -31 -5 -67 -8 -251 -23 -452 -138 -530 -302 -70
-146 -58 -333 28 -442 87 -110 201 -165 462 -223 208 -46 237 -54 288 -76 69
-30 91 -57 92 -111 0 -35 -6 -48 -34 -76 -105 -105 -490 -70 -719 65 l-48 28
-45 -98 c-102 -216 -105 -225 -92 -234 84 -56 271 -119 423 -143 129 -20 394
-13 500 13 250 63 399 199 436 397 29 156 -17 295 -129 389 -87 72 -167 100
-554 194 -70 17 -139 36 -155 44 -41 20 -74 74 -68 112 16 96 112 137 300 131
141 -5 286 -45 406 -112 6 -4 139 295 139 313 0 32 -253 115 -393 129 -65 7
-235 13 -240 10z"/>
<path d="M1320 3647 l0 -788 518 4 c284 2 531 7 547 11 17 4 49 11 73 17 260
58 395 241 358 484 -18 114 -109 235 -214 283 l-54 24 24 17 c114 76 170 182
169 321 0 85 -9 124 -45 185 -46 78 -132 142 -248 184 -107 39 -185 44 -665
45 l-463 2 0 -789z m908 455 c56 -30 82 -73 82 -136 0 -83 -47 -131 -150 -156
-26 -6 -122 -10 -229 -8 l-185 3 -1 150 c0 83 1 156 4 163 3 11 46 13 220 10
202 -3 219 -5 259 -26z m69 -619 c55 -30 86 -75 89 -132 6 -95 -54 -161 -160
-176 -63 -10 -464 -10 -474 -1 -4 4 -7 82 -7 172 l0 166 255 -4 c241 -3 257
-4 297 -25z"/>
<path d="M5003 4433 c-6 -2 -9 -1439 -4 -1555 1 -17 18 -18 219 -18 l217 0 0
310 c0 200 3 310 10 311 32 4 635 3 636 -1 1 -3 2 -142 3 -310 l1 -305 218 -1
217 -2 0 57 c3 429 1 1502 -3 1508 -3 5 -101 8 -219 8 l-213 0 -1 -290 c0
-160 -3 -295 -7 -301 -4 -7 -118 -10 -324 -10 l-318 1 -1 285 c-1 157 -2 292
-3 300 -1 13 -32 15 -210 15 -116 0 -214 -1 -218 -2z"/>
<path d="M6917 3603 c1 -390 2 -716 2 -725 1 -17 18 -18 211 -18 l210 0 2 343
c2 188 2 514 0 725 l-2 382 -213 0 -212 0 2 -707z"/>
</g>
</svg>
